<svg width="20" height="20" viewBox="0 0 20 20" fill="none" xmlns="http://www.w3.org/2000/svg">
<path d="M14.5001 14.2902L17.1445 11.6458C17.3398 11.4506 17.6563 11.4506 17.8516 11.6458C18.0469 11.8411 18.0469 12.1577 17.8516 12.3529L14.3833 15.8213C14.2916 15.9305 14.1539 16 14.0001 16L13.9985 16C13.9198 16 13.8411 15.9816 13.7694 15.9447C13.7243 15.9215 13.682 15.891 13.6442 15.8533L13.6342 15.843L10.1441 12.3529C9.94885 12.1576 9.94885 11.8411 10.1441 11.6458C10.3394 11.4505 10.656 11.4505 10.8512 11.6458L13.5001 14.2947L13.5001 4.5C13.5001 4.22386 13.724 4 14.0001 4C14.2763 4 14.5001 4.22386 14.5001 4.5L14.5001 14.2902ZM5.49561 5.7098L2.85123 8.35417C2.65597 8.54944 2.33939 8.54944 2.14413 8.35417C1.94887 8.15891 1.94887 7.84233 2.14413 7.64707L5.61246 4.17874C5.70417 4.06947 5.84178 4 5.99561 4L5.99727 4C6.07596 3.99998 6.15465 4.01841 6.22629 4.05531C6.27142 4.07847 6.31376 4.10895 6.35155 4.14675L6.36154 4.15701L9.85161 7.64709C10.0469 7.84235 10.0469 8.15893 9.85161 8.35419C9.65635 8.54946 9.33977 8.54946 9.1445 8.35419L6.49561 5.70529L6.49561 15.5C6.49561 15.7761 6.27175 16 5.99561 16C5.71946 16 5.49561 15.7761 5.49561 15.5L5.49561 5.7098Z" fill="#494D57"/>
</svg>
