<svg width="12" height="16" viewBox="0 0 12 16" fill="none" xmlns="http://www.w3.org/2000/svg">
<path d="M0 2.5C0 1.11929 1.11929 0 2.5 0H9.5C10.8807 0 12 1.11929 12 2.5V15.5C12 15.6881 11.8945 15.8602 11.7269 15.9456C11.5593 16.0309 11.358 16.015 11.2059 15.9044L6 12.1182L0.794086 15.9044C0.641993 16.015 0.440696 16.0309 0.273111 15.9456C0.105526 15.8602 0 15.6881 0 15.5V2.5ZM2.5 1C1.67157 1 1 1.67157 1 2.5V14.5181L5.70592 11.0956C5.88124 10.9681 6.11876 10.9681 6.29409 11.0956L11 14.5181V2.5C11 1.67157 10.3284 1 9.5 1H2.5Z" fill="#626670"/>
</svg>
