<svg width="17" height="16" viewBox="0 0 17 16" fill="none" xmlns="http://www.w3.org/2000/svg">
<path d="M6.06667 0.3L7.38572 1.28908L5.43319 3.34437C5.33879 3.44374 5.20774 3.5 5.07069 3.5H0V2.5C0 1.11929 1.11929 0 2.5 0H5.16667C5.49122 0 5.80702 0.105267 6.06667 0.3ZM6.15819 4.03312L8.56466 1.5H13.5C14.8255 1.5 15.91 2.53154 15.9947 3.83562L16 4V8.17071C15.6872 8.06015 15.3506 8 15 8V7C15 6.44772 14.5523 6 14 6H10C9.44772 6 9 6.44772 9 7V8C7.34315 8 6 9.34315 6 11V14H2.5C1.11929 14 0 12.8807 0 11.5V4.5H5.07069C5.48186 4.5 5.875 4.33122 6.15819 4.03312ZM9 9C7.89543 9 7 9.89543 7 11V14C7 15.1046 7.89543 16 9 16H15C16.1046 16 17 15.1046 17 14V11C17 9.89543 16.1046 9 15 9H14V7.5C14 7.22386 13.7761 7 13.5 7H10.5C10.2239 7 10 7.22386 10 7.5V9H9ZM11 9V8H13V9H11Z" fill="#353B47"/>
</svg>
