<svg width="20" height="20" viewBox="0 0 20 20" fill="none" xmlns="http://www.w3.org/2000/svg">
<g id="List">
<path id="Shape" d="M12.261 15.0149C12.6752 15.0149 13.011 15.3507 13.011 15.7649C13.011 16.1446 12.7288 16.4584 12.3628 16.5081L12.261 16.5149H2.82617C2.41196 16.5149 2.07617 16.1792 2.07617 15.7649C2.07617 15.3852 2.35833 15.0715 2.7244 15.0218L2.82617 15.0149H12.261ZM17.2792 9.49565C17.6934 9.49565 18.0292 9.83144 18.0292 10.2457C18.0292 10.6253 17.747 10.9391 17.3809 10.9888L17.2792 10.9957H2.82617C2.41196 10.9957 2.07617 10.6599 2.07617 10.2457C2.07617 9.86596 2.35833 9.55216 2.7244 9.5025L2.82617 9.49565H17.2792ZM13.2555 3.45166C13.6697 3.45166 14.0055 3.78745 14.0055 4.20166C14.0055 4.58136 13.7233 4.89515 13.3573 4.94481L13.2555 4.95166H2.82617C2.41196 4.95166 2.07617 4.61587 2.07617 4.20166C2.07617 3.82196 2.35833 3.50817 2.7244 3.45851L2.82617 3.45166H13.2555Z" fill="#353B47"/>
</g>
</svg>
