<svg width="16" height="16" viewBox="0 0 16 16" fill="none" xmlns="http://www.w3.org/2000/svg">
<path d="M10 1.00588C10 0.132862 8.9597 -0.320966 8.31977 0.272883L4.4476 3.86626C4.35513 3.95208 4.23364 3.99976 4.10749 3.99976H1.5C0.671573 3.99976 0 4.67134 0 5.49976V10.4998C0 11.3282 0.671573 11.9998 1.5 11.9998H4.10749C4.23364 11.9998 4.35513 12.0474 4.4476 12.1333L8.31977 15.7266C8.9597 16.3205 10 15.8667 10 14.9936V1.00588ZM13.2537 2.6274C13.4594 2.44313 13.7755 2.46047 13.9598 2.66614C16.676 5.69772 16.676 10.3018 13.9598 13.3334C13.7756 13.5391 13.4594 13.5565 13.2538 13.3722C13.0481 13.1879 13.0308 12.8718 13.215 12.6661C15.591 10.0143 15.591 5.98523 13.215 3.33344C13.0307 3.12778 13.0481 2.81167 13.2537 2.6274ZM12.0785 10.933C11.8393 10.7952 11.757 10.4895 11.8948 10.2502C12.671 8.90264 12.7265 7.19139 11.8942 5.7497C11.7561 5.51056 11.838 5.20476 12.0772 5.06669C12.3163 4.92862 12.6221 5.01056 12.7602 5.2497C13.7782 7.01297 13.7084 9.1052 12.7614 10.7493C12.6235 10.9886 12.3178 11.0708 12.0785 10.933Z" fill="#353B47"/>
</svg>
