<svg width="17" height="14" viewBox="0 0 17 14" fill="none" xmlns="http://www.w3.org/2000/svg">
<path d="M10.261 12.0149C10.6752 12.0149 11.011 12.3507 11.011 12.7649C11.011 13.1446 10.7288 13.4584 10.3628 13.5081L10.261 13.5149H0.826172C0.411958 13.5149 0.0761719 13.1792 0.0761719 12.7649C0.0761719 12.3852 0.358326 12.0715 0.724401 12.0218L0.826172 12.0149H10.261ZM15.2792 6.49565C15.6934 6.49565 16.0292 6.83144 16.0292 7.24565C16.0292 7.62535 15.747 7.93915 15.3809 7.98881L15.2792 7.99565H0.826172C0.411958 7.99565 0.0761719 7.65987 0.0761719 7.24565C0.0761719 6.86596 0.358326 6.55216 0.724401 6.5025L0.826172 6.49565H15.2792ZM11.2555 0.45166C11.6697 0.45166 12.0055 0.787447 12.0055 1.20166C12.0055 1.58136 11.7233 1.89515 11.3573 1.94481L11.2555 1.95166H0.826172C0.411958 1.95166 0.0761719 1.61587 0.0761719 1.20166C0.0761719 0.821965 0.358326 0.508169 0.724401 0.458507L0.826172 0.45166H11.2555Z" fill="#353B47"/>
</svg>
