<svg width="625" height="311" viewBox="0 0 625 311" fill="none" xmlns="http://www.w3.org/2000/svg">
<path d="M191.096 228.611C190.844 228.06 190.421 227.561 189.861 227.157C189.654 227.013 189.43 226.884 189.192 226.77C187.296 225.823 184.462 225.611 182.66 226.77C182.478 226.888 182.311 227.018 182.159 227.157C181.621 227.653 181.069 228.137 180.502 228.611C179.572 229.406 178.62 230.174 177.624 230.92C177.341 231.127 177.058 231.339 176.767 231.546C176.6 231.671 176.433 231.791 176.266 231.911C175.626 232.368 174.972 232.809 174.311 233.245C173.962 233.479 173.613 233.708 173.257 233.931C172.727 234.263 172.196 234.595 171.659 234.916C171.608 234.944 171.557 234.971 171.506 235.004C171.492 235.009 171.484 235.02 171.47 235.025C171.462 235.025 171.455 235.025 171.448 235.036C171.428 235.042 171.411 235.051 171.397 235.063C171.237 235.145 171.128 235.2 171.048 235.249C171.077 235.238 171.106 235.221 171.135 235.21C171.005 235.287 170.867 235.363 170.736 235.439C169.464 236.142 168.164 236.817 166.834 237.448C163.544 239.026 160.088 240.401 156.501 241.56C156.261 241.63 156.014 241.707 155.767 241.777C146.375 244.661 136.187 245.786 126.084 245.055C125.052 244.995 124.021 244.914 122.989 244.81C121.797 244.68 120.613 244.522 119.436 244.342C114.954 243.672 110.569 242.68 106.342 241.38C101.053 239.565 96.0236 237.354 91.3294 234.78C90.6027 234.394 89.8688 234.007 89.1349 233.631C89.9706 232.096 90.7917 230.56 91.591 229.014C91.9906 228.268 92.3757 227.522 92.7536 226.77C95.7255 220.982 98.5158 215.14 101.19 209.275C103.893 203.334 106.443 197.359 108.841 191.35C109.088 190.74 109.328 190.13 109.561 189.52C110.818 186.345 112.024 183.164 113.179 179.975C113.288 179.664 113.404 179.359 113.506 179.049C113.84 178.134 114.167 177.219 114.487 176.305C115.214 174.241 113.572 171.774 110.68 171.279C109.287 171.011 107.811 171.159 106.561 171.691C105.311 172.224 104.386 173.099 103.98 174.132C103.668 175.014 103.355 175.891 103.035 176.773C101.502 181.036 99.8891 185.285 98.1961 189.52C97.949 190.13 97.702 190.74 97.4549 191.35C93.72 200.574 89.6194 209.705 85.153 218.744C84.6153 219.839 84.0703 220.93 83.5181 222.017C83.2492 222.55 82.9804 223.084 82.7042 223.618C82.1738 224.669 81.6288 225.72 81.0839 226.77C80.7714 227.386 80.4516 228.001 80.132 228.611C79.9212 228.998 79.7178 229.384 79.5143 229.765C77.4426 229.208 75.2961 228.821 73.1127 228.611L72.7639 228.578C71.0711 228.426 69.3592 228.437 67.6702 228.611C65.1423 228.832 62.71 229.466 60.5454 230.469C58.3807 231.472 56.5365 232.82 55.143 234.415C51.677 238.505 51.7206 244.353 56.5818 247.827C61.5883 251.404 69.1671 251.377 75.0601 249.139C78.183 247.873 80.8162 246.024 82.7042 243.77C83.4276 242.953 84.0922 242.108 84.6952 241.238C84.8478 241.315 85.0004 241.391 85.153 241.472C85.7343 241.777 86.3156 242.088 86.8896 242.393C90.2343 244.208 93.7591 245.83 97.4331 247.244C105.333 250.187 113.837 252.115 122.589 252.945C122.785 252.962 122.974 252.984 123.17 253C124.137 253.092 125.111 253.163 126.084 253.223C140.052 254.012 154.036 251.87 166.471 247.037C167.524 246.629 168.568 246.201 169.602 245.752C171.208 245.055 172.778 244.315 174.311 243.531C175.147 243.106 175.96 242.676 176.767 242.224C180.291 240.278 183.577 238.101 186.584 235.717C187.725 234.818 188.817 233.891 189.861 232.934C190.848 232.152 191.417 231.125 191.459 230.048C191.454 229.557 191.331 229.07 191.096 228.611ZM70.7729 241.581C70.9255 241.5 71.0781 241.413 71.2234 241.325C71.1799 241.407 70.9691 241.5 70.7729 241.581ZM73.1054 239.823C72.9383 239.964 72.7857 240.106 72.6186 240.247C72.1101 240.674 71.5639 241.074 70.9836 241.445C70.9037 241.5 70.8165 241.554 70.7293 241.603C70.7284 241.603 70.7274 241.603 70.7265 241.603C70.7256 241.604 70.7248 241.604 70.7241 241.605C70.7235 241.605 70.7229 241.606 70.7226 241.606C70.7222 241.607 70.722 241.608 70.7221 241.609C70.6171 241.644 70.5152 241.684 70.4168 241.728C70.1044 241.87 69.7847 242.001 69.4577 242.12C68.8175 242.297 68.1589 242.434 67.4886 242.529C66.9735 242.557 66.4565 242.561 65.9408 242.54H65.9263C65.5704 242.48 65.2187 242.408 64.8727 242.322C64.6983 242.257 64.5311 242.18 64.364 242.104C64.2986 242.061 64.2405 242.017 64.2042 241.99C64.1332 241.941 64.0676 241.888 64.008 241.832C64.008 241.831 64.0078 241.83 64.0075 241.83C64.0071 241.829 64.0066 241.828 64.0059 241.828C64.0053 241.827 64.0044 241.827 64.0035 241.827C64.0026 241.826 64.0017 241.826 64.0007 241.826C63.9208 241.717 63.8336 241.609 63.7537 241.5C63.7495 241.497 63.7469 241.493 63.7464 241.489C63.6883 241.353 63.6374 241.211 63.5938 241.069C63.5781 240.821 63.5805 240.572 63.6011 240.323C63.6986 239.976 63.8297 239.633 63.9935 239.3C64.1406 239.063 64.3081 238.834 64.4948 238.614C64.5094 238.592 64.5821 238.505 64.662 238.407C64.6692 238.401 64.6692 238.401 64.6692 238.396C64.7782 238.303 64.8872 238.205 65.0035 238.118C65.1997 237.955 65.4104 237.813 65.6211 237.666C66.031 237.465 66.4555 237.282 66.8928 237.116C67.5864 236.932 68.2983 236.788 69.0218 236.686C70.0887 236.623 71.161 236.63 72.2262 236.708C73.2352 236.839 74.2306 237.023 75.2054 237.258C74.6146 238.117 73.942 238.943 73.1926 239.73C73.1635 239.763 73.1345 239.795 73.1054 239.823ZM65.0253 238.031C64.9612 238.108 64.8857 238.179 64.8 238.243C64.8577 238.163 64.9339 238.091 65.0253 238.031Z" fill="#3F3D56"/>
<path d="M169.253 172.998C169.188 174.708 169.122 176.418 169.057 178.127C168.919 181.923 168.776 185.72 168.628 189.519C168.476 193.793 168.316 198.066 168.149 202.337C168.069 204.542 167.986 206.747 167.902 208.952C167.676 214.893 167.453 220.832 167.233 226.769C167.211 227.384 167.182 227.994 167.16 228.61C167.051 231.555 166.942 234.501 166.833 237.447C166.71 240.643 166.589 243.84 166.47 247.036C166.383 249.432 166.293 251.83 166.201 254.229C165.547 271.615 164.893 289.002 164.239 306.388C164.212 307.465 163.629 308.492 162.613 309.253C161.596 310.015 160.226 310.452 158.79 310.472C157.348 310.464 155.968 310.031 154.949 309.266C153.929 308.503 153.351 307.469 153.34 306.388C153.703 296.609 154.071 286.829 154.444 277.05C154.771 268.207 155.103 259.364 155.44 250.521C155.549 247.608 155.658 244.693 155.767 241.776C155.934 237.387 156.099 232.998 156.261 228.61C156.283 227.994 156.312 227.384 156.334 226.769C156.348 226.23 156.37 225.696 156.392 225.157C156.711 216.636 157.031 208.112 157.351 199.587C157.482 196.233 157.608 192.876 157.729 189.519C157.874 185.691 158.019 181.865 158.165 178.04C158.23 176.358 158.288 174.681 158.354 172.998C158.381 171.921 158.964 170.895 159.98 170.133C160.996 169.372 162.367 168.935 163.803 168.914C165.245 168.923 166.625 169.356 167.644 170.12C168.664 170.884 169.241 171.918 169.253 172.998Z" fill="#3F3D56"/>
<path d="M468.21 174.132C462.496 190.348 455.666 206.331 447.747 222.017C445.562 226.344 443.327 230.663 440.938 234.929L441.487 233.953C440.421 235.986 439.059 237.923 437.426 239.732C437.315 239.848 437.201 239.964 437.086 240.078C437.651 239.537 437.758 239.43 437.408 239.758C437.224 239.921 437.041 240.086 436.85 240.245C436.342 240.672 435.796 241.073 435.216 241.445C435.07 241.538 434.922 241.63 434.772 241.719L435.453 241.323C435.374 241.462 434.819 241.648 434.646 241.727C434.086 241.98 433.502 242.202 432.899 242.391L434.201 241.979C433.211 242.277 432.18 242.489 431.126 242.611L432.575 242.465C431.539 242.572 430.49 242.581 429.452 242.49L430.9 242.636C430.051 242.548 429.22 242.38 428.426 242.137L429.728 242.548C429.305 242.41 428.897 242.247 428.508 242.06C428.311 241.964 427.705 241.62 428.498 242.074C429.321 242.545 428.603 242.114 428.434 241.989C428.293 241.884 428.165 241.771 428.027 241.665C427.386 241.172 428.751 242.512 428.316 241.936C428.083 241.648 427.87 241.35 427.677 241.045L428.227 242.021C427.977 241.556 427.799 241.072 427.698 240.577L427.892 241.663C427.788 241.047 427.788 240.424 427.89 239.809L427.695 240.894C427.829 240.207 428.071 239.534 428.418 238.89L427.869 239.866C428.111 239.433 428.397 239.014 428.725 238.614C428.876 238.408 429.053 238.212 429.254 238.031C429.29 238.04 428.332 238.855 428.841 238.443C428.973 238.336 429.098 238.222 429.232 238.115C429.447 237.944 429.678 237.788 429.905 237.626C430.664 237.085 428.842 238.152 429.718 237.724C430.353 237.411 431.021 237.138 431.716 236.908L430.414 237.319C431.578 236.961 432.797 236.716 434.044 236.59L432.595 236.736C434.156 236.601 435.733 236.615 437.29 236.777L435.841 236.631C437.812 236.855 439.738 237.261 441.575 237.84L440.274 237.428C444.19 238.688 447.658 240.559 451.121 242.393C454.465 244.208 457.989 245.829 461.661 247.243C469.562 250.187 478.066 252.115 486.819 252.946C499.372 254.098 512.11 252.87 523.865 249.373C535.619 245.877 546.014 240.224 554.095 232.934C555.081 232.15 555.649 231.123 555.691 230.046C555.681 228.965 555.108 227.929 554.095 227.159C552.095 225.783 548.319 225.395 546.388 227.159C544.558 228.833 542.59 230.42 540.497 231.911C539.52 232.605 538.517 233.279 537.487 233.931C536.899 234.303 536.303 234.668 535.699 235.026C535.413 235.195 534.523 235.646 535.89 234.918C535.577 235.085 535.276 235.267 534.967 235.438C530.391 237.966 525.432 240.08 520.193 241.735L521.495 241.324C515.873 243.091 509.969 244.303 503.931 244.93L505.38 244.784C499.168 245.396 492.876 245.389 486.666 244.763L488.115 244.909C481.907 244.27 475.836 243.031 470.053 241.223L471.355 241.634C465.775 239.784 460.479 237.485 455.561 234.778C453.001 233.358 450.302 232.085 447.486 230.97C444.205 229.714 440.653 228.905 436.995 228.58C430.136 227.975 423.147 229.977 419.377 234.417C415.906 238.504 415.951 244.351 420.811 247.826C425.816 251.405 433.395 251.375 439.293 249.136C444.973 246.98 448.385 242.501 450.785 238.278C456.184 228.773 460.965 219.049 465.419 209.275C469.826 199.605 473.822 189.838 477.407 179.973C477.851 178.751 478.289 177.528 478.72 176.303C479.448 174.24 477.804 171.773 474.914 171.28C473.521 171.011 472.043 171.158 470.793 171.69C469.542 172.223 468.616 173.098 468.21 174.132Z" fill="#3F3D56"/>
<path d="M522.587 172.998L520.625 225.159L518.674 277.048L517.57 306.389C517.583 307.469 518.161 308.503 519.18 309.266C520.199 310.03 521.578 310.464 523.02 310.473C524.457 310.452 525.827 310.015 526.843 309.254C527.859 308.492 528.442 307.465 528.47 306.389L530.431 254.228L532.383 202.339L533.486 172.998C533.474 171.918 532.896 170.884 531.876 170.12C530.857 169.356 529.478 168.923 528.036 168.914C526.6 168.935 525.23 169.372 524.214 170.133C523.197 170.895 522.614 171.921 522.587 172.998Z" fill="#3F3D56"/>
<path d="M377.767 212.394C371.512 203.251 361.82 195.557 350.422 189.904C338.987 184.258 325.867 180.82 312.229 179.896C310.441 179.774 308.649 179.703 306.852 179.682C304.729 179.658 272.798 186.56 262.101 192.196C251.41 197.763 242.615 205.136 236.427 213.719C230.249 222.349 227.21 232.046 227.616 241.834C228.146 251.682 231.808 261.292 238.299 269.864C244.702 278.408 253.793 285.65 264.781 290.962C275.926 296.29 287.121 310.42 300.28 310.919C313.538 311.422 328.658 298.093 340.75 294.046C352.842 289.965 363.296 283.581 371.069 275.53C378.623 267.639 383.51 258.493 385.311 248.877C387.181 239.03 386.309 228.875 381.822 219.464C380.67 217.046 379.316 214.684 377.767 212.394C376.474 210.486 372.684 209.783 370.311 210.929C369.088 211.493 368.203 212.389 367.839 213.429C367.475 214.47 367.66 215.576 368.356 216.517C369.115 217.638 369.821 218.777 370.474 219.935L369.925 218.959C372.395 223.411 374.075 228.086 374.921 232.865L374.727 231.78C375.627 236.965 375.611 242.216 374.679 247.398L374.873 246.312C373.931 251.494 372.086 256.56 369.384 261.381L369.933 260.406C368.543 262.866 366.923 265.249 365.085 267.538C364.154 268.694 363.166 269.824 362.12 270.926C361.661 271.409 361.188 271.885 360.711 272.358C360.089 272.977 361.559 271.551 360.917 272.157C360.807 272.261 360.698 272.364 360.588 272.467C360.258 272.776 359.924 273.083 359.584 273.386C357.319 275.412 354.846 277.302 352.19 279.04C351.528 279.473 350.855 279.896 350.171 280.31C349.831 280.516 349.494 280.73 349.139 280.922C349.152 280.915 350.286 280.269 349.615 280.644C349.404 280.762 349.195 280.881 348.983 280.999C347.574 281.781 346.127 282.524 344.642 283.227C341.224 284.84 337.639 286.245 333.92 287.427L335.222 287.015C328.807 289.039 322.065 290.421 315.169 291.127L316.618 290.981C309.726 291.679 302.74 291.689 295.844 291.009L297.293 291.155C291.026 290.524 284.896 289.282 279.058 287.46L280.36 287.872C276.979 286.802 273.718 285.529 270.611 284.065C269.074 283.339 267.576 282.568 266.118 281.753C265.91 281.636 265.704 281.518 265.497 281.401C264.832 281.025 265.975 281.679 265.984 281.683C265.597 281.475 265.225 281.253 264.868 281.016C264.164 280.587 263.471 280.147 262.789 279.698C260.06 277.897 257.512 275.947 255.165 273.866C254.577 273.346 254.002 272.817 253.439 272.281C253.196 272.049 252.752 271.579 253.733 272.569C253.604 272.439 253.47 272.311 253.34 272.181C253.026 271.87 252.717 271.556 252.413 271.241C251.346 270.134 250.331 269 249.37 267.84C247.197 265.212 245.301 262.461 243.698 259.613L244.247 260.588C241.625 255.913 239.832 251 238.914 245.975L239.108 247.061C238.28 242.429 238.268 237.736 239.073 233.102L238.878 234.187C239.704 229.7 241.315 225.313 243.67 221.141L243.121 222.117C244.603 219.505 246.351 216.982 248.349 214.572C249.35 213.365 250.41 212.188 251.53 211.041C251.785 210.78 252.042 210.521 252.302 210.263C252.538 210.03 253.185 209.45 252.08 210.475C252.189 210.374 252.293 210.271 252.4 210.17C253.014 209.586 253.644 209.012 254.288 208.446C256.728 206.306 259.371 204.3 262.197 202.445C262.911 201.976 263.636 201.517 264.373 201.068C264.707 200.864 265.044 200.662 265.383 200.462C265.519 200.382 265.656 200.304 265.791 200.223C264.34 201.089 265.388 200.459 265.718 200.274C267.236 199.421 268.795 198.612 270.394 197.845C273.949 196.141 277.689 194.664 281.574 193.43L280.272 193.841C285.911 192.067 310.893 187.879 315.437 188.336L313.988 188.191C320.667 188.889 327.194 190.241 333.404 192.21L332.102 191.799C335.249 192.8 338.307 193.951 341.258 195.245C342.732 195.893 344.177 196.576 345.594 197.294C346.264 197.634 346.927 197.981 347.583 198.337C347.911 198.514 348.237 198.694 348.562 198.875C348.742 198.976 348.92 199.078 349.1 199.179C349.855 199.603 348.06 198.565 348.852 199.034C351.501 200.593 354.017 202.276 356.385 204.072C357.548 204.96 358.672 205.876 359.755 206.819C360.31 207.304 360.854 207.795 361.387 208.294C361.652 208.541 362.553 209.438 361.448 208.34C361.718 208.608 361.991 208.875 362.258 209.145C364.554 211.474 366.593 213.94 368.356 216.517C369.659 218.421 373.432 219.131 375.812 217.982C377.035 217.418 377.921 216.523 378.285 215.482C378.649 214.441 378.463 213.335 377.767 212.394Z" fill="#3F3D56"/>
<path d="M69.2117 245.032C73.6261 245.032 77.2047 242.35 77.2047 239.042C77.2047 235.734 73.6261 233.053 69.2117 233.053C64.7973 233.053 61.2188 235.734 61.2188 239.042C61.2188 242.35 64.7973 245.032 69.2117 245.032Z" fill="#3F3D56"/>
<path d="M165.126 310.374C169.54 310.374 173.119 307.692 173.119 304.384C173.119 301.076 169.54 298.395 165.126 298.395C160.711 298.395 157.133 301.076 157.133 304.384C157.133 307.692 160.711 310.374 165.126 310.374Z" fill="#3F3D56"/>
<path d="M529.169 310.374C533.583 310.374 537.162 307.692 537.162 304.384C537.162 301.076 533.583 298.395 529.169 298.395C524.754 298.395 521.176 301.076 521.176 304.384C521.176 307.692 524.754 310.374 529.169 310.374Z" fill="#3F3D56"/>
<path d="M548.79 234.141C553.204 234.141 556.783 231.46 556.783 228.152C556.783 224.844 553.204 222.162 548.79 222.162C544.375 222.162 540.797 224.844 540.797 228.152C540.797 231.46 544.375 234.141 548.79 234.141Z" fill="#3F3D56"/>
<path d="M525.536 178.602C529.95 178.602 533.529 175.921 533.529 172.613C533.529 169.305 529.95 166.623 525.536 166.623C521.122 166.623 517.543 169.305 517.543 172.613C517.543 175.921 521.122 178.602 525.536 178.602Z" fill="#3F3D56"/>
<path d="M192.011 228.154C192.007 229.684 191.217 231.154 189.806 232.26C188.395 233.365 186.471 234.023 184.432 234.095C182.392 234.167 180.394 233.649 178.85 232.648C177.306 231.647 176.335 230.239 176.137 228.717C175.939 227.194 176.531 225.672 177.788 224.467C179.046 223.262 180.874 222.465 182.894 222.242C184.914 222.018 186.971 222.385 188.639 223.267C190.308 224.148 191.461 225.477 191.859 226.978C191.961 227.365 192.012 227.759 192.011 228.154Z" fill="#3F3D56"/>
<path d="M351.872 196.026C356.286 196.026 359.865 193.345 359.865 190.037C359.865 186.729 356.286 184.047 351.872 184.047C347.457 184.047 343.879 186.729 343.879 190.037C343.879 193.345 347.457 196.026 351.872 196.026Z" fill="#3F3D56"/>
<path d="M272.668 190.037C272.663 191.567 271.873 193.037 270.462 194.142C269.052 195.248 267.127 195.905 265.088 195.978C263.048 196.05 261.05 195.532 259.506 194.531C257.962 193.53 256.991 192.122 256.793 190.599C256.596 189.077 257.187 187.555 258.445 186.35C259.702 185.145 261.53 184.348 263.55 184.124C265.57 183.901 267.627 184.268 269.296 185.15C270.965 186.031 272.117 187.36 272.515 188.86C272.618 189.248 272.669 189.642 272.668 190.037Z" fill="#3F3D56"/>
<path d="M169.486 172.613C169.481 174.143 168.692 175.613 167.281 176.719C165.87 177.824 163.946 178.482 161.906 178.554C159.867 178.626 157.868 178.108 156.324 177.107C154.78 176.106 153.809 174.698 153.612 173.176C153.414 171.653 154.005 170.131 155.263 168.926C156.521 167.721 158.349 166.924 160.368 166.701C162.388 166.477 164.445 166.844 166.114 167.726C167.783 168.607 168.935 169.936 169.333 171.437C169.436 171.824 169.487 172.218 169.486 172.613Z" fill="#3F3D56"/>
<path d="M435.434 247.212C439.849 247.212 443.427 244.53 443.427 241.222C443.427 237.914 439.849 235.232 435.434 235.232C431.02 235.232 427.441 237.914 427.441 241.222C427.441 244.53 431.02 247.212 435.434 247.212Z" fill="#3F3D56"/>
<path d="M309.726 192.759C316.147 192.759 321.352 188.858 321.352 184.046C321.352 179.235 316.147 175.334 309.726 175.334C303.305 175.334 298.1 179.235 298.1 184.046C298.1 188.858 303.305 192.759 309.726 192.759Z" fill="#3F3D56"/>
<path d="M624.135 310.832L0.865183 310.999C0.751565 310.999 0.639056 310.982 0.534087 310.95C0.429118 310.917 0.333746 310.869 0.253406 310.809C0.173066 310.749 0.109329 310.678 0.0658489 310.599C0.0223692 310.52 0 310.436 0 310.351C0 310.266 0.0223692 310.181 0.0658489 310.103C0.109329 310.024 0.173066 309.953 0.253406 309.892C0.333746 309.832 0.429118 309.784 0.534087 309.752C0.639056 309.719 0.751565 309.702 0.865183 309.702L624.135 309.535C624.364 309.536 624.583 309.604 624.745 309.726C624.907 309.847 624.997 310.012 624.997 310.183C624.997 310.355 624.907 310.52 624.745 310.641C624.583 310.763 624.364 310.831 624.135 310.832Z" fill="#CACACA"/>
</svg>
