<svg width="14" height="12" viewBox="0 0 14 12" fill="none" xmlns="http://www.w3.org/2000/svg">
<path d="M5.63206 0.447116C6.4632 -0.0963179 7.53719 -0.0963029 8.36833 0.447153L13.7736 3.98154C13.9137 4.07312 13.9986 4.22869 14 4.39602C14.0013 4.56336 13.9189 4.72027 13.7803 4.81407L8.4016 8.45512C7.55518 9.0281 6.44521 9.02812 5.59878 8.45516L1 5.34225L1 8.5C1 8.77614 0.776142 9 0.5 9C0.223858 9 0 8.77614 0 8.5V4.5C0 4.48307 0.000841165 4.46634 0.00248397 4.44985C0.000705875 4.43207 -0.000128363 4.41411 1.62079e-05 4.39602C0.00135394 4.22869 0.0863167 4.07311 0.226379 3.98153L5.63206 0.447116ZM2 9.50002V7.22671L5.03822 9.28328C6.22323 10.0854 7.77719 10.0854 8.96218 9.28323L12 7.2268V9.50002C12 9.61866 11.9578 9.73343 11.881 9.82383C11.881 9.82383 11.881 9.82383 11.5 9.50002L11.881 9.82383L11.8796 9.82541L11.8777 9.82772L11.8718 9.83448L11.8525 9.85626C11.8363 9.87433 11.8134 9.89935 11.784 9.93032C11.7252 9.99223 11.6401 10.0781 11.5298 10.1799C11.3096 10.3832 10.987 10.6519 10.5711 10.9202C9.74051 11.4561 8.52236 12 7.0001 12C5.47783 12 4.25964 11.4561 3.42899 10.9202C3.01312 10.6519 2.69051 10.3832 2.47026 10.1799C2.35997 10.0781 2.27484 9.99224 2.21603 9.93034C2.18661 9.89937 2.16372 9.87435 2.14752 9.85628L2.12823 9.8345L2.12237 9.82774L2.12039 9.82543L2.11963 9.82455L2.5 9.50002C2.11904 9.82385 2.11963 9.82455 2.11963 9.82455C2.04279 9.73415 2 9.61867 2 9.50002Z" fill="#1E2532"/>
</svg>
