<svg width="800" height="800" viewBox="0 0 800 800" fill="none" xmlns="http://www.w3.org/2000/svg">
<path d="M400 533.333C455.23 533.333 500 488.563 500 433.333C500 378.103 455.23 333.333 400 333.333C344.77 333.333 300 378.103 300 433.333C300 488.563 344.77 533.333 400 533.333Z" stroke="black" stroke-width="40" stroke-linecap="round" stroke-linejoin="round"/>
<path d="M100 559.667V306.333C100 268.997 100 250.328 107.266 236.067C113.658 223.523 123.856 213.324 136.401 206.933C150.661 199.667 169.33 199.667 206.667 199.667H241.821C245.919 199.667 247.968 199.667 249.859 199.45C259.722 198.32 268.568 192.853 273.99 184.536C275.029 182.942 275.945 181.109 277.778 177.444C281.443 170.114 283.276 166.449 285.354 163.261C296.197 146.627 313.889 135.693 333.617 133.433C337.397 133 341.493 133 349.69 133H450.31C458.507 133 462.603 133 466.383 133.433C486.11 135.693 503.803 146.627 514.647 163.261C516.723 166.448 518.557 170.115 522.223 177.444C524.053 181.11 524.97 182.942 526.01 184.536C531.433 192.853 540.277 198.32 550.14 199.45C552.033 199.667 554.08 199.667 558.18 199.667H593.333C630.67 199.667 649.34 199.667 663.6 206.933C676.143 213.324 686.343 223.523 692.733 236.067C700 250.328 700 268.997 700 306.333V559.667C700 597.003 700 615.673 692.733 629.933C686.343 642.477 676.143 652.677 663.6 659.067C649.34 666.333 630.67 666.333 593.333 666.333H206.667C169.33 666.333 150.661 666.333 136.401 659.067C123.856 652.677 113.658 642.477 107.266 629.933C100 615.673 100 597.003 100 559.667Z" stroke="black" stroke-width="40" stroke-linecap="round" stroke-linejoin="round"/>
</svg>
