<svg width="18" height="18" viewBox="0 0 18 18" fill="none" xmlns="http://www.w3.org/2000/svg">
<path d="M12.7917 0.5C14.2874 0.5 15.5 1.71256 15.5 3.20833V3.83333H0.5V3.20833C0.5 1.71256 1.71256 0.5 3.20833 0.5H12.7917ZM15.5 5.08333V8.01818C14.6581 7.47916 13.6572 7.16667 12.5833 7.16667C9.59179 7.16667 7.16667 9.59179 7.16667 12.5833C7.16667 13.6572 7.47916 14.6581 8.01818 15.5H3.20833C1.71256 15.5 0.5 14.2874 0.5 12.7917V5.08333H15.5ZM17.1667 12.5833C17.1667 10.052 15.1146 8 12.5833 8C10.052 8 8 10.052 8 12.5833C8 15.1146 10.052 17.1667 12.5833 17.1667C15.1146 17.1667 17.1667 15.1146 17.1667 12.5833ZM12.5833 12.5834H14.25C14.4801 12.5834 14.6667 12.7699 14.6667 13C14.6667 13.2302 14.4801 13.4167 14.25 13.4167H12.1667C11.9365 13.4167 11.75 13.2302 11.75 13L11.75 12.9988L11.75 10.4999C11.75 10.2698 11.9365 10.0833 12.1667 10.0833C12.3968 10.0833 12.5833 10.2698 12.5833 10.4999L12.5833 12.5834Z" fill="#353B47"/>
</svg>
