<svg width="13" height="13" viewBox="0 0 13 13" fill="none" xmlns="http://www.w3.org/2000/svg">
<path d="M1.53595 5.32742L6.29536 0.599327C6.67086 0.226301 7.1795 0.0157618 7.71053 0.0135591L10.9746 1.78238e-05C12.0955 -0.00463174 13.0043 0.900988 12.9962 2.01444L12.9717 5.38579C12.9679 5.9112 12.7561 6.41402 12.3821 6.78556L7.69294 11.4439C6.90672 12.2249 5.632 12.2249 4.84578 11.4439L1.53596 8.15585C0.749735 7.3748 0.749733 6.10847 1.53595 5.32742ZM9.26422 3.65827C9.56495 3.95702 10.0525 3.95702 10.3533 3.65827C10.654 3.35952 10.654 2.87514 10.3533 2.57639C10.0525 2.27764 9.56495 2.27764 9.26422 2.57639C8.96349 2.87514 8.96349 3.35952 9.26422 3.65827Z" fill="#1E2532"/>
</svg>
